# xmcd
#
# Track frame offsets:
#	150
#	13430
#	36397
#	54370
#	73765
#	94276
#	114818
#	136351
#	160974
#	184437
#	214809
#
# Disc length: 3268 seconds
#
# Revision: 0
# Processed by: cddbd v1.5.1PL2 Copyright (c) Steve Scherf et al.
# Submitted via: dBpowerAMP V4.0
#
DISCID=a40cc20b
DTITLE=Chimène Badi - Live à l'Olympia CD 2
DYEAR=2006
DGENRE=Chanson
TTITLE0=Dis moi que tu m'aimes
TTITLE1=J'ai tout oublié
TTITLE2=Give me one reason
TTITLE3=Je viens du sud
TTITLE4=Retomber amoureux
TTITLE5=Entre nous
TTITLE6=L'envie
TTITLE7=Je t'ai dans la peau
TTITLE8=J'aurais préféré
TTITLE9=Un père
TTITLE10=DATA
EXTD=
EXTT0=
EXTT1=
EXTT2=
EXTT3=
EXTT4=
EXTT5=
EXTT6=
EXTT7=
EXTT8=
EXTT9=
EXTT10=
PLAYORDER=
